# xmcd CD database file
# Copyright (C) 1997 Ti Kan
# 
# Track frame offsets:
#     150
#     16637
#     34310
#     40535
#     46475
#     63025
#     80225
#     101287
#     117115
#     132487
#     140460
#     152680
#     164737
#     178060
# 
# Disc length: 2588 seconds
# 
# Revision: 2
# Processed by: cddbd v1.4PL0 Copyright (c) Steve Scherf et al.
# Submitted via: Gronk 1.4
# 
DISCID=b40a1a0e
DTITLE=Louis Armstrong - The Louis Armstrong Collection
DYEAR=1900
DGENRE=blues
TTITLE0=Hello Dolly
TTITLE1=Cabaret
TTITLE2=Tiger Rag
TTITLE3=When It's Sleepy Time Down South
TTITLE4=Muskrat Ramble
TTITLE5=Indiana
TTITLE6=A Kiss to Build A Dream On
TTITLE7=Mack the Knife
TTITLE8=Blueberry Hill
TTITLE9=St. James Infirmary
TTITLE10=When the Saints Go Marchin' In
TTITLE11=Jeepers Creepers
TTITLE12=Ain't Misbehavin'
TTITLE13=Lazy River
EXTD=
EXTT0=
EXTT1=
EXTT2=
EXTT3=
EXTT4=
EXTT5=
EXTT6=
EXTT7=
EXTT8=
EXTT9=
EXTT10=
EXTT11=
EXTT12=
EXTT13=
PLAYORDER=
